<svg width="600" height="600" viewBox="0 0 600 600" fill="none" xmlns="http://www.w3.org/2000/svg">
<circle cx="300" cy="300" r="300" fill="white"/>
<path d="M170.325 454.55C153.325 454.55 137.6 450.867 123.15 443.5C108.7 436.133 96.9417 425.65 87.875 412.05L106.575 390.8C123.008 415.167 144.4 427.35 170.75 427.35C207.583 427.35 226 405.533 226 361.9V181.7H117.2V154.5H257.025V360.625C257.025 391.792 249.658 415.308 234.925 431.175C220.475 446.758 198.942 454.55 170.325 454.55Z" fill="black"/>
<path d="M348.675 312.175L287.9 373.8V452H256.45V154.5H287.9V334.275L462.575 154.5H498.7L369.925 289.225L507.625 452H470.225L348.675 312.175Z" fill="#B3B3B3"/>
</svg>
